<svg xmlns="http://www.w3.org/2000/svg" width="17.064" height="17" viewBox="0 0 17.064 17">
    <path fill="none" stroke="#161615" d="M16.383 10.784a6.067 6.067 0 0 0 .058-.784 6.068 6.068 0 0 0-.058-.784L18.119 7.9a.4.4 0 0 0 .1-.512l-1.647-2.772a.419.419 0 0 0-.5-.176l-2.048.8a6.051 6.051 0 0 0-1.39-.784l-.313-2.12a.4.4 0 0 0-.4-.336H8.628a.4.4 0 0 0-.4.336l-.313 2.12a6.364 6.364 0 0 0-1.39.784l-2.048-.8a.406.406 0 0 0-.5.176L2.328 7.384a.387.387 0 0 0 .1.512l1.735 1.32A6.174 6.174 0 0 0 4.1 10a6.174 6.174 0 0 0 .058.784L2.426 12.1a.4.4 0 0 0-.1.512l1.645 2.768a.419.419 0 0 0 .5.176l2.048-.8a6.051 6.051 0 0 0 1.39.784l.313 2.12a.4.4 0 0 0 .4.336h3.29a.4.4 0 0 0 .4-.336l.313-2.12a6.364 6.364 0 0 0 1.39-.784l2.048.8a.406.406 0 0 0 .5-.176l1.645-2.768a.4.4 0 0 0-.1-.512zM10.272 12.8a2.8 2.8 0 1 1 2.879-2.8 2.843 2.843 0 0 1-2.879 2.8z" transform="translate(-1.736 -1.5)"/>
</svg>
