<svg xmlns="http://www.w3.org/2000/svg" width="6.787" height="12" viewBox="0 0 6.787 12">
    <path fill="#666" d="M9.973 8.267c-1.513-.393-2-.8-2-1.433 0-.727.673-1.233 1.8-1.233 1.187 0 1.627.567 1.667 1.4h1.473a2.657 2.657 0 0 0-2.14-2.54V3h-2v1.44A2.6 2.6 0 0 0 6.44 6.847c0 1.54 1.273 2.307 3.133 2.753 1.667.4 2 .987 2 1.607 0 .46-.327 1.193-1.8 1.193-1.373 0-1.913-.613-1.986-1.4H6.32a2.793 2.793 0 0 0 2.453 2.553V15h2v-1.433c1.3-.247 2.333-1 2.333-2.367.001-1.893-1.619-2.54-3.133-2.933z" transform="translate(-6.32 -3)"/>
</svg>
