<svg xmlns="http://www.w3.org/2000/svg" width="10" height="10" viewBox="0 0 10 10">
    <path fill="#666" d="M11.889 3H4.111A1.114 1.114 0 0 0 3 4.111v7.778A1.114 1.114 0 0 0 4.111 13h7.778A1.114 1.114 0 0 0 13 11.889V4.111A1.114 1.114 0 0 0 11.889 3zM5.5 11.333a.833.833 0 1 1 .833-.833.832.832 0 0 1-.833.833zm0-5a.833.833 0 1 1 .833-.833.832.832 0 0 1-.833.833zm2.5 2.5A.833.833 0 1 1 8.833 8 .832.832 0 0 1 8 8.833zm2.5 2.5a.833.833 0 1 1 .833-.833.832.832 0 0 1-.833.833zm0-5a.833.833 0 1 1 .833-.833.832.832 0 0 1-.833.833z" transform="translate(-3 -3)"/>
</svg>
